<?xml version="1.0" encoding="UTF-8" standalone="no"?>
<!-- Generator: Adobe Illustrator 27.5.0, SVG Export Plug-In . SVG Version: 6.00 Build 0)  -->

<svg
   version="1.1"
   x="0px"
   y="0px"
   viewBox="0 0 550 370"
   xml:space="preserve"
   id="svg812"
   sodipodi:docname="startup-dark.svg"
   inkscape:version="1.2.1 (9c6d41e410, 2022-07-14)"
   width="550"
   height="370"
   xmlns:inkscape="http://www.inkscape.org/namespaces/inkscape"
   xmlns:sodipodi="http://sodipodi.sourceforge.net/DTD/sodipodi-0.dtd"
   xmlns="http://www.w3.org/2000/svg"
   xmlns:svg="http://www.w3.org/2000/svg"><defs
   id="defs816">
	

		
		
		
		
		
		
		
		
		
		
		
		
		
	
			
			
				
			
				
		
			
			
		
				
				
					
				
					
				
					
			
				
				
				
				
			
			
			
			
			
			
			
			
		</defs><sodipodi:namedview
   id="namedview814"
   pagecolor="#ffffff"
   bordercolor="#000000"
   borderopacity="0.25"
   inkscape:showpageshadow="2"
   inkscape:pageopacity="0.0"
   inkscape:pagecheckerboard="0"
   inkscape:deskcolor="#d1d1d1"
   showgrid="false"
   inkscape:zoom="1.616"
   inkscape:cx="302.90842"
   inkscape:cy="181.62129"
   inkscape:window-width="1920"
   inkscape:window-height="991"
   inkscape:window-x="-9"
   inkscape:window-y="-9"
   inkscape:window-maximized="1"
   inkscape:current-layer="svg812" />

<path
   style="fill:#062a39;fill-opacity:1"
   d="m 420.16773,249.52181 c 0,4.229 1.716,8.06 4.487,10.831 2.77,2.77 6.601,4.486 10.831,4.486 h 47.623 c 10.284,0 19.026,6.569 22.272,15.741 0.874,2.462 1.35,5.116 1.35,7.88 0,6.524 -2.642,12.431 -6.916,16.706 -4.274,4.274 -10.181,6.916 -16.706,6.916 h -76.239 c -1.845,0 -3.49,0.842 -4.583,2.16 -0.848,1.022 -1.363,2.346 -1.363,3.786 0,1.646 0.668,3.13 1.742,4.204 1.073,1.08 2.565,1.742 4.204,1.742 h 34.317 c 0.141,0 0.283,0 0.424,0.006 1.85799,0.039 3.651,0.315 5.354,0.81 0.097,0.026 0.199,0.051 0.296,0.084 8.587,2.597 14.835,10.574 14.835,20.009 0,3.027 -0.643,5.907 -1.806,8.504 -1.048,2.359 -2.52,4.48 -4.319,6.28 -3.78,3.779 -9.012,6.119 -14.784,6.119 h -335.77 c -6.858005,0 -12.913005,-3.458 -16.506005,-8.729 -2.185,-3.201 -3.465,-7.07 -3.465,-11.242 0,-5.508 2.237,-10.503 5.849,-14.122 0.225,-0.225 0.45,-0.443 0.688,-0.656 3.548,-3.227 8.260005,-5.194 13.434005,-5.194 h 6.852 c 4.57,0 8.279,-3.702 8.279,-8.272 0,-1.183 -0.251,-2.307 -0.694,-3.329 -0.418,-0.951 -1.003,-1.806 -1.729,-2.526 -1.498,-1.498 -3.567,-2.423 -5.856,-2.423 H 46.699725 c -10.561,0 -19.244,-8.035 -20.266,-18.332 -0.064,-0.668 -0.096,-1.343 -0.096,-2.031 0,-5.624 2.282,-10.709 5.965,-14.392 3.683,-3.689 8.774,-5.965 14.398,-5.965 h 28.777 c 7.405,0 13.408,-6.004 13.408,-13.408 0,-3.702 -1.504,-7.058 -3.927,-9.481 -2.423,-2.423 -5.779,-3.927 -9.481,-3.927 h -41.806 c -13.498,0 -24.438,-10.946 -24.438,-24.445 0,-6.749 2.738,-12.862 7.16,-17.284 4.422,-4.422 10.529,-7.154 17.278,-7.154 h 31.701 c 11.846,0 21.449,-9.609 21.449,-21.456 V 88.217812 c 0,-6.511 5.277,-11.788 11.788,-11.788 3.259005,0 6.203005,-1.318 8.337005,-3.458 2.134,-2.134 3.452,-5.084 3.452,-8.337 v -21.88 c 0,-21.642 17.548,-39.183 39.19,-39.183 h 254.087 c 10.882,0 19.701,8.819 19.701,19.701 0,5.444 -2.205,10.368 -5.772,13.935 -3.561,3.567 -8.491,5.772 -13.929,5.772 h -21.192 c -5.444,0 -9.854,4.409 -9.854,9.847 0,2.719 1.106,5.187 2.886,6.968 1.78,1.781 4.249,2.886 6.968,2.886 h 93.073 c 18.917,0 34.247,15.33 34.247,34.247 0,9.461998 -3.831,18.022998 -10.027,24.218998 -6.203,6.196 -14.765,10.027 -24.22,10.027 -8.08,0 -15.401,3.278 -20.697,8.575 -3.182,3.188 -5.637,7.103 -7.09,11.48 -0.958,2.899 -1.478,5.997 -1.478,9.217 v 0.636 c 0,16.159 13.1,29.265 29.265,29.265 h 9.25 c 12.11,0 21.925,9.815 21.925,21.931 0,0.579 -0.019,1.151 -0.064,1.71 -0.418,5.374 -2.77,10.207 -6.357,13.794 -3.966,3.966 -9.449,6.421 -15.504,6.421 h -49.32 c -8.461,0.001 -15.319,6.86 -15.319,15.319 z"
   id="path413" /><circle
   transform="rotate(-45)"
   style="fill:#116a88;stroke-width:0.99999;fill-opacity:1"
   cx="11.721398"
   cy="85.785568"
   id="ellipse415"
   r="13.287872" /><circle
   transform="rotate(-22.500428)"
   style="fill:#0e688b;stroke-width:1.00003;fill-opacity:1"
   cx="380.64484"
   cy="466.84048"
   id="ellipse417"
   r="13.288336" /><g
   id="g435"
   transform="translate(-93.772275,-61.881188)">
			<g
   id="g423">
				<path
   style="fill:#00b3f9"
   d="m 398.456,344.062 c -0.191,0 -0.384,-0.034 -0.569,-0.104 -0.624,-0.237 -1.037,-0.835 -1.037,-1.503 v -43.162 c 0,-0.888 0.719,-1.607 1.607,-1.607 h 38.26 c 0.632,0 1.206,0.371 1.466,0.948 0.259,0.576 0.156,1.252 -0.263,1.725 l -38.26,43.162 c -0.312,0.351 -0.753,0.541 -1.204,0.541 z m 1.607,-43.162 v 37.32 l 33.082,-37.32 z"
   id="path421" />
			</g>
			<path
   style="fill:#0d5375"
   d="m 442.674,302.501 h -62.795 c -1.772,0 -3.207,-1.436 -3.207,-3.207 v 0 c 0,-1.771 1.436,-3.208 3.207,-3.208 h 62.795 c 1.772,0 3.207,1.436 3.207,3.208 v 0 c 0.001,1.771 -1.435,3.207 -3.207,3.207 z"
   id="path425" />
			<path
   style="fill:#65b8d1"
   d="m 517.147,212.461 c 0,0 -12.225,81.638 -12.495,82.461 -0.276,0.829 -33.173,44.39 -33.173,44.39 l -20.903,-12.592 -7.842,-76.991 16.23,-34.986 1.061,-2.282 h 11.454 c 0,0 3.818,-8.465 15.124,-8.465 1.941,0 3.555,0.251 4.898,0.662 0.019,0.006 0.038,0.013 0.058,0.019 0.019,0 0.045,0.013 0.077,0.019 6.37,2.038 6.576,7.765 6.576,7.765 z"
   id="path427" />
			<path
   style="opacity:0.25"
   d="m 517.147,212.461 c 0,0 -12.225,81.638 -12.495,82.461 -0.276,0.829 -33.173,44.39 -33.173,44.39 l -20.903,-12.592 -7.842,-76.991 16.23,-34.986 c 2.803,0.225 7.141,2.674 12.515,12.534 9.699,17.792 14.739,21.231 21.616,20.999 5.38,-0.173 8.369,-24.798 18.422,-35.815 z"
   id="path429" />
			<path
   style="fill:#8bdef2"
   d="m 506.31,212.461 h -8.099 c 0,0 -0.206,-5.727 -6.576,-7.765 1.35,0.386 12.181,3.522 13.254,5.168 0.361,0.547 0.881,1.421 1.421,2.597 z"
   id="path431" />
			<path
   style="fill:#0d5375"
   d="m 403.52,342.455 c 0,2.796 -2.267,5.063 -5.063,5.063 -2.796,0 -5.063,-2.267 -5.063,-5.063 0,-2.796 2.267,-5.063 5.063,-5.063 2.796,0 5.063,2.267 5.063,5.063 z"
   id="path433" />
		</g><path
   style="fill:none;stroke:#65b8d1;stroke-width:1.2855;stroke-miterlimit:10"
   d="m 126.44673,97.099812 6.37599,-16.479 c 0.428,-1.107 1.98401,-1.133 2.45,-0.042 l 7.227,17.474"
   id="path437" /><circle
   transform="rotate(-75.581605)"
   style="fill:#111f22;stroke-width:0.999997;fill-opacity:1"
   cx="-83.575073"
   cy="159.847"
   id="ellipse439"
   r="25.430914" /><circle
   transform="rotate(-45)"
   style="fill:#236476;stroke-width:0.99999;fill-opacity:1"
   cx="10.670719"
   cy="181.41737"
   id="ellipse441"
   r="25.430756" /><circle
   transform="rotate(-60.771769)"
   style="opacity:0.55;fill:#0d0d0d;stroke-width:1.00002;fill-opacity:1"
   cx="-39.03801"
   cy="177.49785"
   id="ellipse443"
   r="16.936357" /><path
   style="fill:none;stroke:#65b8d1;stroke-width:1.2855;stroke-miterlimit:10"
   d="m 223.37673,42.022812 6.37599,-16.479 c 0.428,-1.107 1.984,-1.133 2.45,-0.041 l 7.227,17.475"
   id="path447" /><circle
   style="fill:#0c2127;fill-opacity:1"
   cx="230.92572"
   cy="65.658813"
   r="25.431"
   id="circle449" /><circle
   style="fill:#4d4d4d;fill-opacity:1"
   cx="232.75873"
   cy="65.658813"
   r="25.431"
   id="circle451" /><circle
   style="fill:#12323b;fill-opacity:1"
   cx="232.75873"
   cy="65.658813"
   r="16.936001"
   id="circle453" /><g
   id="g463"
   transform="translate(-93.772275,-61.881188)">
			<polygon
   style="fill:#008eba"
   points="379.427,427.667 340.99,280.125 347.025,280.125 385.469,427.667 "
   id="polygon459" />
			<polygon
   style="opacity:0.25"
   points="382.166,427.667 343.722,280.125 347.025,280.125 385.469,427.667 "
   id="polygon461" />
		</g><g
   id="g578"
   transform="translate(-93.772275,-61.881188)">
			<path
   style="fill:#0d5375"
   d="m 408.397,314.874 -3.278,8.555 c 0,0 -3.567,5.483 -8.247,11.48 -0.058,0.084 -0.109,0.148 -0.154,0.199 -0.026,0.026 -0.045,0.058 -0.071,0.096 -4.384,5.586 -9.686,11.544 -13.929,13.884 -3.696,2.031 -11.236,12.888 -18.846,24.875 -10.696,16.84 -21.526,35.911 -22.066,35.911 -0.913,0 -14.051,-7.334 -14.359,-8.857 -0.296,-1.485 24.74,-53.903 32.35,-66.482 0.232,-0.379 0.444,-0.726 0.643,-1.028 2.7,-4.172 8.092,-8.633 13.569,-12.476 2.237,-1.575 4.487,-3.04 6.576,-4.339 5.534,-3.452 9.944,-5.746 9.944,-5.746 l 15.729,3.458 z"
   id="path465" />
			<path
   style="fill:#02374c"
   d="m 378.309,325.717 c -3.362,2.153 -11.454,10.541 -13.897,10.998 -1.53,0.283 -3.42,-1.106 -4.615,-2.179 0.232,-0.379 0.444,-0.726 0.643,-1.028 3.805,-5.875 12.933,-12.322 20.144,-16.815 2.456,3.522 0.534,7.848 -2.275,9.024 z"
   id="path467" />
			<path
   style="opacity:0.25"
   d="m 406.257,314.404 c -1.748,4.821 -7.855,18.319 -9.384,20.504 -0.058,0.084 -0.109,0.148 -0.154,0.199 -0.026,0.026 -0.045,0.058 -0.071,0.096 -4.384,5.586 -9.686,11.544 -13.929,13.884 -3.696,2.031 -11.236,12.888 -18.846,24.875 6.132,-16.056 9.082,-41.619 10.136,-52.932 2.237,-1.575 4.487,-3.04 6.576,-4.339 5.534,-3.452 9.944,-5.746 9.944,-5.746 z"
   id="path469" />
			<g
   style="opacity:0.25"
   id="g479">
				<g
   id="g477">
					<path
   style="fill:none;stroke:#f9f9f9;stroke-width:1.2855;stroke-linecap:round;stroke-miterlimit:10"
   d="m 385.064,330.452 c 0,0 -0.633,0.393 -1.785,1.363"
   id="path471" />
					
						<path
   style="fill:none;stroke:#f9f9f9;stroke-width:1.2855;stroke-linecap:round;stroke-miterlimit:10;stroke-dasharray:4.3561, 4.3561"
   d="m 380.109,334.797 c -3.43,3.53 -8.406,9.562 -14.17,19.329 -8.62,14.606 -19.211,37.471 -23.387,46.673"
   id="path473" />
					<path
   style="fill:none;stroke:#f9f9f9;stroke-width:1.2855;stroke-linecap:round;stroke-miterlimit:10"
   d="m 341.654,402.786 c -0.591,1.313 -0.917,2.049 -0.917,2.049"
   id="path475" />
				</g>
			</g>
			<path
   style="fill:#0d5375"
   d="m 469.743,333.199 c -4.216,6.878 -12.438,5.039 -24.747,3.362 -12.309,-1.678 -32.016,-0.302 -34.915,0.765 -1.748,0.643 -7.045,27.253 -11.512,48.529 -2.385,11.371 -4.538,21.218 -5.785,24.766 v 0.006 c -0.296,0.836 -0.54,1.318 -0.726,1.388 -2.443,0.913 -10.233,2.597 -15.883,-2.442 -0.913,-15.555 -0.379,-52.354 3.349,-75.628 1.253,-7.81 2.867,-14.096 4.898,-17.548 2.057,-3.497 6.537,-6.126 12.065,-8.112 0.019,-0.006 0.039,-0.013 0.058,-0.019 0.019,-0.007 0.045,-0.013 0.084,-0.026 0.161,-0.064 0.315,-0.116 0.476,-0.174 6.338,-2.192 13.961,-3.567 20.903,-4.429 3.323,4.763 13.53,2.886 21.359,4.094 1.806,0.276 4.088,0.456 6.588,0.521 9.031,0.251 20.954,-0.874 23.789,-3.509 0.243,0.405 8.612,14.443 -0.001,28.456 z"
   id="path481" />
			<path
   style="opacity:0.25"
   d="m 469.743,333.199 c -4.216,6.878 -12.438,5.039 -24.747,3.362 -12.309,-1.678 -32.016,-0.302 -34.915,0.765 -1.748,0.643 -7.045,27.253 -11.512,48.529 1.684,-20.132 4.757,-55.522 5.701,-55.4 1.221,0.148 5.656,4.654 5.656,4.654 0,0 37.917,-4.583 33.475,-10.419 -4.441,-5.843 -21.79,-15.812 -29.812,-17.644 -7.437,-1.697 -15.799,0.823 -16.963,1.196 0.161,-0.064 0.315,-0.116 0.476,-0.174 6.338,-2.192 13.961,-3.567 20.903,-4.429 3.323,4.763 13.53,2.886 21.359,4.094 1.806,0.276 4.088,0.456 6.588,0.521 9.031,0.251 20.954,-0.874 23.789,-3.509 0.246,0.403 8.615,14.441 0.002,28.454 z"
   id="path483" />
			<linearGradient
   id="SVGID_1_"
   gradientUnits="userSpaceOnUse"
   x1="317.37601"
   y1="249.1951"
   x2="401.7655"
   y2="256.992">
				<stop
   offset="0"
   style="stop-color:#FFA894"
   id="stop485" />
				<stop
   offset="1"
   style="stop-color:#FC7B65"
   id="stop487" />
			</linearGradient>
			<path
   style="fill:url(#SVGID_1_)"
   d="m 405.119,260.958 -9.243,1.067 c 0,0 -9.134,-0.263 -19.939,-0.591 -14.083,-0.431 -31.001,-0.983 -34.285,-1.24 -5.804,-0.456 -16.648,-2.905 -15.883,-4.583 0.765,-1.678 7.636,-2.443 10.844,-2.597 3.207,-0.154 8.857,2.597 10.998,2.597 1.858,0 25.274,-0.919 32.858,-1.363 1.17,-0.071 1.967,-0.128 2.25,-0.167 2.115,-0.302 10.882,-6.601 10.882,-6.601 l 6.64,1.832 z"
   id="path490" />
			<path
   style="opacity:0.25"
   d="m 405.119,260.958 -9.243,1.067 c 0,0 -9.134,-0.263 -19.939,-0.591 l 4.531,-7.186 c 1.17,-0.071 1.967,-0.128 2.25,-0.167 2.115,-0.302 10.882,-6.601 10.882,-6.601 l 6.64,1.832 z"
   id="path492" />
			<path
   style="fill:#0c1c28"
   d="m 470.296,303.953 c -0.096,0.276 -0.283,0.54 -0.553,0.784 v 0.006 c -2.835,2.635 -14.758,3.76 -23.789,3.509 -2.5,-0.064 -4.782,-0.244 -6.588,-0.521 -7.829,-1.208 -18.036,0.669 -21.359,-4.094 -0.476,-0.668 -0.81,-1.472 -0.977,-2.436 -1.266,-7.16 3.619,-17.123 2.97,-28.475 -0.058,-0.996 -0.161,-2.005 -0.309,-3.027 -0.161,-1.099 -0.321,-2.211 -0.476,-3.323 -0.096,-0.662 -0.193,-1.33 -0.283,-1.999 -0.437,-3.156 -0.848,-6.306 -1.202,-9.327 -5.451,2.712 -12.798,6.511 -14.45,6.286 -0.353,-0.045 -0.823,-0.334 -1.369,-0.797 -3.336,-2.828 -9.417,-12.213 -8.137,-13.292 1.491,-1.26 29.902,-21.764 29.902,-21.764 2.417,-1.851 5.386,-3.567 8.857,-5.001 1.292,-0.54 2.655,-1.035 4.082,-1.485 h 0.006 c 1.678,-0.534 3.445,-1.003 5.303,-1.395 0,0 1.009,0.174 2.603,0.514 l 0.064,0.013 c 1.086,0.225 2.43,0.527 3.908,0.906 l 0.161,0.039 c 5.791,1.478 13.53,4.037 15.677,7.52 0.482,0.778 0.906,2.262 1.292,4.268 2.449,12.836 3.027,46.954 3.522,52.701 0.573,6.641 2.52,16.379 1.145,20.39 z"
   id="path494" />
			<path
   style="opacity:0.25"
   d="m 470.296,303.953 c -1.099,3.201 -14.456,4.576 -24.342,4.3 7.514,-1.948 12.2,-5.56 12.624,-9.115 0.688,-5.804 -4.815,-7.79 -15.677,-10.233 -7.25,-1.633 -17.136,-10.477 -22.902,-16.178 -0.058,-0.996 -0.161,-2.005 -0.309,-3.027 -0.161,-1.099 -0.321,-2.211 -0.476,-3.323 15.266,-7.533 43.689,-39.1 43.689,-39.1 l 2.725,3.587 c 2.449,12.836 3.027,46.954 3.522,52.701 0.574,6.639 2.521,16.377 1.146,20.388 z"
   id="path496" />
			<path
   style="opacity:0.25"
   d="m 420.642,258.516 v 5.952 c 0,0 -0.636,-0.032 -1.71,-0.09 -0.437,-3.156 -0.848,-6.306 -1.202,-9.327 -5.451,2.712 -12.798,6.511 -14.45,6.286 -0.353,-0.045 -0.823,-0.334 -1.369,-0.797 8.266,-5.014 15.439,-24.046 18.73,-25.55 -2.114,3.972 10e-4,23.526 10e-4,23.526 z"
   id="path498" />
			<path
   style="fill:#0c1c28"
   d="m 471.478,245.679 c 0.071,5.759 -3.169,13.601 -5.733,18.049 -1.234,2.134 -2.308,3.49 -2.79,3.452 -0.225,-0.019 -0.72,-0.193 -1.408,-0.501 -3.902,-1.729 -14.025,-7.662 -15.876,-13.016 0.54,-0.938 1.073,-1.851 1.6,-2.745 9.082,-15.401 16.089,-24.47 16.693,-24.856 10e-4,0 7.315,3.625 7.514,19.617 z"
   id="path500" />
			
				<linearGradient
   id="SVGID_00000075875744525414673840000011620168579401126275_"
   gradientUnits="userSpaceOnUse"
   x1="373.28369"
   y1="261.45041"
   x2="457.59479"
   y2="269.24011">
				<stop
   offset="0"
   style="stop-color:#FFA894"
   id="stop502" />
				<stop
   offset="1"
   style="stop-color:#FC7B65"
   id="stop504" />
			</linearGradient>
			<path
   style="fill:url(#SVGID_00000075875744525414673840000011620168579401126275_)"
   d="m 461.548,266.679 c -1.768,2.25 -5.117,6.363 -8.594,9.995 -3.889,4.056 -7.945,7.508 -10.149,7.058 -5.097,-1.029 -39.98,-26.746 -43.304,-27.26 -3.323,-0.514 -16.834,0.688 -16.783,-0.231 0.058,-0.919 7.392,-8.761 10.882,-8.761 3.49,0 11.686,4.294 15.24,4.692 3.548,0.405 31.438,10.773 31.438,10.773 l 3.124,-5.374 2.269,-3.908 c 1.852,5.354 11.975,11.287 15.877,13.016 z"
   id="path507" />
			<path
   style="opacity:0.25"
   d="m 448.66,219.075 c -2.455,6.871 -9.95,12.001 -14.411,10.072 -3.67,-1.588 -2.468,-6.479 -1.716,-8.665 1.292,-0.54 2.655,-1.035 4.082,-1.485 h 0.006 l 7.906,-0.881 0.064,0.013 3.908,0.906 z"
   id="path509" />
			<path
   style="fill:#07171c"
   d="m 424.781,209.286 -3.329,0.579 -0.469,0.083 c -2.661,0.469 -5.431,-2.655 -6.184,-6.974 -0.758,-4.319 0.778,-8.202 3.439,-8.671 l 3.805,-0.662 c -0.469,0.084 -0.906,0.27 -1.298,0.559 -0.174,0.116 -0.341,0.257 -0.495,0.411 -0.662,0.656 -1.17,1.6 -1.478,2.719 -0.405,1.433 -0.488,3.169 -0.173,4.975 0.315,1.813 0.99,3.407 1.851,4.622 0.681,0.951 1.478,1.665 2.32,2.057 0.655,0.308 1.336,0.418 2.011,0.302 z"
   id="path511" />
			<path
   style="opacity:0.25"
   d="m 424.781,209.286 -3.329,0.579 c -2.16,-0.604 -4.14,-3.349 -4.757,-6.891 -0.758,-4.319 0.778,-8.202 3.439,-8.671 l 0.611,-0.103 c -0.174,0.116 -0.341,0.257 -0.495,0.411 -0.662,0.656 -1.17,1.6 -1.478,2.719 -0.405,1.433 -0.488,3.169 -0.173,4.975 0.315,1.813 0.99,3.407 1.851,4.622 0.681,0.951 1.478,1.665 2.32,2.057 0.655,0.308 1.336,0.418 2.011,0.302 z"
   id="path513" />
			<path
   style="fill:#0c1c28"
   d="m 451.173,190.208 c -0.392,7.109 -3.098,15.369 -8.125,20.941 -0.006,0.006 -0.006,0.006 -0.013,0.013 l -5.007,-17.181 c 0,0 -5.418,2.288 -11.756,4.737 -3.175,1.221 -5.753,2.217 -8.292,2.455 -2.526,0.231 -5.001,-0.289 -7.977,-2.076 -4.075,-2.455 -4.917,-8.028 -2.873,-11.332 0.945,-1.53 2.5,-2.571 4.628,-2.603 1.375,-10.541 9.789,-12.72 14.919,-7.45 0.064,0.071 0.154,0.129 0.257,0.174 0,0 0.007,0.006 0.019,0.013 1.832,0.868 8.864,-0.758 8.864,-0.758 0,0 2.192,-2.648 6.942,-1.8 1.099,0.199 2.333,0.579 3.709,1.228 3.497,1.639 5.065,7.16 4.705,13.639 z"
   id="path515" />
			
				<linearGradient
   id="SVGID_00000124162870979080900750000012731557006909746084_"
   gradientUnits="userSpaceOnUse"
   x1="427.0177"
   y1="224.0715"
   x2="436.79279"
   y2="194.2877">
				<stop
   offset="0"
   style="stop-color:#FFA894"
   id="stop517" />
				<stop
   offset="1"
   style="stop-color:#FC7B65"
   id="stop519" />
			</linearGradient>
			<path
   style="fill:url(#SVGID_00000124162870979080900750000012731557006909746084_)"
   d="m 445.286,218.799 c -2.063,7.411 -9.089,8.247 -10.079,7.636 -0.469,-0.289 -1.401,-2.308 -2.243,-4.339 -0.855,-2.05 -1.62,-4.114 -1.742,-4.442 -0.006,-0.032 -0.013,-0.045 -0.013,-0.045 0,0 -0.058,0.038 -0.186,0.071 -0.186,0.045 -0.514,0.09 -1.028,0.013 -0.72,-0.109 -1.8,-0.469 -3.317,-1.414 -5.451,-3.374 -7.822,-11.39 -8.549,-14.443 -0.058,-0.257 -0.109,-0.482 -0.148,-0.662 2.539,-0.238 5.117,-1.234 8.292,-2.455 6.338,-2.449 11.756,-4.737 11.756,-4.737 l 3.895,13.37 1.112,3.812 c 0.006,-0.007 0.006,-0.007 0.013,-0.013 0.463,2.223 1.195,5.102 2.237,7.648 z"
   id="path522" />
			<path
   style="opacity:0.25"
   d="m 451.173,190.208 c -0.392,7.109 -3.098,15.369 -8.125,20.941 -0.006,0.006 -0.006,0.006 -0.013,0.013 l -5.007,-17.181 c 0,0 -5.418,2.288 -11.756,4.737 -3.175,1.221 -5.753,2.217 -8.292,2.455 -2.526,0.231 -5.001,-0.289 -7.977,-2.076 -4.075,-2.455 -4.917,-8.028 -2.873,-11.332 -0.302,5.599 3.998,8.208 3.998,8.208 0,0 -1.086,-3.31 0.463,-5.772 0.052,2.867 1.774,5.727 8.099,6.389 6.331,0.662 13.665,-3.985 12.348,-10.053 -1.26,-5.817 -4.789,-8.427 -5.084,-8.639 1.832,0.868 8.864,-0.758 8.864,-0.758 0,0 2.192,-2.648 6.942,-1.8 -2.217,2.925 4.486,11.538 7.533,13.884 0.341,0.264 0.63,0.599 0.88,0.984 z"
   id="path524" />
			<path
   style="opacity:0.25"
   d="m 432.964,222.096 c -0.855,-2.05 -1.62,-4.114 -1.742,-4.442 1.478,-0.199 4.005,-1.086 5.914,-4.544 0.88,1.864 -2.777,7.096 -4.172,8.986 z"
   id="path526" />
			<path
   style="opacity:0.25"
   d="m 441.924,207.351 c -5.039,-3.085 -9.789,-7.726 -17.143,-6.177 -2.957,0.623 -5.11,0.752 -6.653,0.662 -0.058,-0.257 -0.109,-0.482 -0.148,-0.662 2.539,-0.238 5.117,-1.234 8.292,-2.455 6.338,-2.449 11.756,-4.737 11.756,-4.737 z"
   id="path528" />
			<path
   style="fill:#00b3f9"
   d="m 442.361,188.576 -4.281,1.626 c 0,0 -0.038,-0.309 -0.135,-0.829 -0.54,-2.982 -2.905,-12.9 -10.239,-11.274 1.054,-2.301 11.454,-4.107 14.218,7.951 0.18,0.784 0.328,1.626 0.437,2.526 z"
   id="path530" />
			<path
   style="fill:#00b3f9"
   d="m 446.655,203.951 c -0.675,0.116 -1.356,0.006 -2.012,-0.302 -0.842,-0.392 -1.639,-1.105 -2.32,-2.057 -0.861,-1.215 -1.536,-2.809 -1.851,-4.621 -0.315,-1.806 -0.231,-3.542 0.174,-4.975 0.309,-1.118 0.816,-2.063 1.478,-2.719 0.514,-0.514 1.118,-0.855 1.793,-0.971 2.655,-0.469 5.425,2.655 6.184,6.974 0.758,4.319 -0.785,8.202 -3.446,8.671 z"
   id="path532" />
			<path
   style="fill:#07171c"
   d="m 448.435,200.377 c -0.302,0.058 -0.611,0.026 -0.913,-0.071 -0.09,-0.026 -0.174,-0.064 -0.264,-0.103 -0.276,-0.129 -0.546,-0.321 -0.803,-0.566 -0.199,-0.18 -0.386,-0.398 -0.559,-0.643 -0.508,-0.714 -0.9,-1.646 -1.086,-2.713 -0.186,-1.061 -0.135,-2.076 0.103,-2.918 0.077,-0.289 0.18,-0.559 0.309,-0.803 0.154,-0.309 0.341,-0.578 0.559,-0.791 0.058,-0.058 0.116,-0.109 0.18,-0.154 0.257,-0.219 0.553,-0.36 0.874,-0.418 1.556,-0.276 3.182,1.562 3.625,4.094 0.443,2.534 -0.463,4.81 -2.025,5.086 z"
   id="path534" />
			<path
   style="opacity:0.25"
   d="m 448.069,200.448 c -0.373,0.726 -0.926,1.221 -1.6,1.343 -0.302,0.058 -0.611,0.026 -0.913,-0.071 -0.09,-0.026 -0.173,-0.064 -0.264,-0.103 -0.276,-0.129 -0.546,-0.321 -0.803,-0.566 -0.199,-0.18 -0.385,-0.398 -0.559,-0.643 -0.508,-0.714 -0.9,-1.645 -1.086,-2.713 -0.173,-1.003 -0.141,-1.967 0.071,-2.783 -0.032,0.54 0,1.118 0.103,1.71 0.186,1.061 0.579,1.999 1.086,2.712 0.398,0.553 0.868,0.977 1.363,1.202 0.386,0.186 0.784,0.251 1.176,0.18 z"
   id="path536" />
			<path
   style="fill:#07171c"
   d="m 446.655,203.951 -3.799,0.662 c -2.661,0.469 -5.432,-2.655 -6.184,-6.974 -0.758,-4.319 0.778,-8.202 3.439,-8.671 l 3.805,-0.662 c -0.675,0.116 -1.279,0.456 -1.793,0.971 -0.662,0.656 -1.17,1.601 -1.478,2.719 -0.405,1.433 -0.488,3.169 -0.174,4.975 0.315,1.813 0.99,3.407 1.851,4.621 0.681,0.951 1.478,1.665 2.32,2.057 0.656,0.308 1.338,0.417 2.013,0.302 z"
   id="path538" />
			<path
   style="opacity:0.25"
   d="m 442.361,188.576 -4.281,1.626 c 0,0 -0.038,-0.309 -0.135,-0.829 1.016,-1.883 2.468,-3.137 3.979,-3.323 0.18,0.784 0.328,1.626 0.437,2.526 z"
   id="path540" />
			<path
   style="fill:#008eba"
   d="m 448.435,200.377 -0.366,0.071 -1.427,0.27 c -0.392,0.071 -0.791,0.006 -1.176,-0.18 -0.495,-0.225 -0.964,-0.649 -1.363,-1.202 -0.508,-0.714 -0.9,-1.652 -1.086,-2.712 -0.103,-0.591 -0.135,-1.17 -0.103,-1.71 0,-0.007 0,-0.007 0,-0.013 0.032,-0.424 0.103,-0.829 0.206,-1.196 0.18,-0.656 0.476,-1.215 0.868,-1.594 0.302,-0.302 0.656,-0.508 1.054,-0.572 l 1.793,-0.341 c -0.321,0.058 -0.617,0.199 -0.874,0.418 -0.064,0.045 -0.122,0.096 -0.18,0.154 -0.218,0.212 -0.405,0.482 -0.559,0.791 -0.007,0.007 -0.007,0.019 -0.013,0.026 -0.122,0.238 -0.219,0.495 -0.296,0.778 -0.238,0.842 -0.289,1.858 -0.103,2.918 0.187,1.067 0.579,1.999 1.086,2.713 0.174,0.244 0.36,0.463 0.559,0.643 0.257,0.244 0.527,0.437 0.803,0.566 0.09,0.038 0.174,0.077 0.264,0.103 0.186,0.058 0.386,0.09 0.572,0.096 0.116,0.005 0.226,-0.008 0.341,-0.027 z"
   id="path542" />
			<path
   style="opacity:0.25;fill:#ffffff"
   d="m 465.745,263.728 c -1.234,2.134 -2.308,3.49 -2.79,3.452 -0.225,-0.019 -0.72,-0.193 -1.408,-0.501 -3.902,-1.729 -14.025,-7.662 -15.876,-13.016 0.54,-0.938 1.073,-1.851 1.6,-2.745 2.848,2.674 11.744,10.689 18.474,12.81 z"
   id="path544" />
			<path
   style="opacity:0.25"
   d="m 461.548,266.679 c -1.768,2.25 -5.117,6.363 -8.594,9.995 -6.074,-5.862 -8.555,-13.948 -9.552,-19.103 l 2.269,-3.908 c 1.852,5.354 11.975,11.287 15.877,13.016 z"
   id="path546" />
			<path
   style="fill:#02374c"
   d="m 392.398,317.811 c -4.885,4.782 -7.212,17.413 -8.362,17.297 -0.739,-0.071 -3.002,-0.713 -4.512,-1.163 1.253,-7.81 2.867,-14.096 4.898,-17.548 2.134,-3.625 6.871,-6.318 12.682,-8.33 1.472,2.121 2.86,4.313 2.97,4.821 0.231,1.028 -2.63,-10e-4 -7.676,4.923 z"
   id="path548" />
			<path
   style="opacity:0.25;fill:none;stroke:#f9f9f9;stroke-width:1.2855;stroke-miterlimit:10"
   d="m 452.475,312.2 c 0,0 -1.612,6.404 6.1,9.388"
   id="path550" />
			<g
   style="opacity:0.25"
   id="g560">
				<g
   id="g558">
					<path
   style="fill:none;stroke:#f9f9f9;stroke-width:1.2855;stroke-linecap:round;stroke-miterlimit:10"
   d="m 450.479,316.693 c 0,0 -0.817,0.06 -2.237,0.196"
   id="path552" />
					
						<path
   style="fill:none;stroke:#f9f9f9;stroke-width:1.2855;stroke-linecap:round;stroke-miterlimit:10;stroke-dasharray:4.6228, 4.6228"
   d="m 443.648,317.383 c -12.046,1.434 -36.151,5.356 -39.906,14.062 -4.239,9.828 -11.206,58.067 -13.314,73.151"
   id="path554" />
					<path
   style="fill:none;stroke:#f9f9f9;stroke-width:1.2855;stroke-linecap:round;stroke-miterlimit:10"
   d="m 390.109,406.886 c -0.197,1.43 -0.305,2.225 -0.305,2.225"
   id="path556" />
				</g>
			</g>
			<path
   style="fill:#1c1c1c"
   d="m 394.121,427.667 h -37.576 c 0,-1.196 0.366,-2.288 1.003,-3.285 2.16,-3.419 7.398,-5.727 11.409,-7.276 1.993,-0.778 3.683,-1.363 4.544,-1.806 3.092,-1.607 2.674,-5.727 2.674,-5.727 1.08,0.964 2.237,1.678 3.42,2.198 0.321,0.142 0.643,0.27 0.97,0.386 0,0 0,0 0.007,0 4.731,1.678 9.642,0.553 11.486,-0.141 0.186,-0.071 0.431,-0.553 0.726,-1.388 l 0.501,6.415 0.578,7.34 z"
   id="path562" />
			<line
   style="fill:none"
   x1="392.784"
   y1="410.62701"
   x2="392.784"
   y2="410.621"
   id="line564" />
			<path
   style="fill:#1c1c1c"
   d="m 341.806,409.875 c 0,0 -1.067,2.796 -2.507,6.177 -1.144,2.68 -2.52,5.727 -3.786,8.028 -1.157,2.108 -2.217,3.587 -2.912,3.587 -2.404,0 -27.832,-14.546 -30.352,-21.533 0.926,-0.816 1.909,-1.356 2.938,-1.697 3.529,-1.17 7.668,-0.026 12.283,0.321 1.048,0.077 2.121,0.116 3.22,0.077 7.334,-0.27 6.755,-3.818 6.755,-3.818 0.103,0.501 1.62,1.652 3.632,2.957 0.797,0.514 1.671,1.06 2.571,1.594 3.659,2.199 7.67,4.307 8.158,4.307 z"
   id="path566" />
			<path
   style="opacity:0.25"
   d="m 379.595,411.771 c -1.118,5.978 -5.149,8.543 -7.167,8.26 -1.736,-0.238 -3.002,-2.121 -3.471,-2.925 1.993,-0.778 3.683,-1.363 4.544,-1.806 3.092,-1.607 2.674,-5.727 2.674,-5.727 1.08,0.964 2.237,1.677 3.42,2.198 z"
   id="path568" />
			<path
   style="opacity:0.25"
   d="m 331.078,403.974 c -3.092,4.904 -9.821,5.637 -11.531,5.136 -1.369,-0.405 -1.89,-2.905 -2.076,-4.352 1.048,0.077 2.121,0.116 3.22,0.077 7.334,-0.27 6.755,-3.818 6.755,-3.818 0.103,0.502 1.62,1.652 3.632,2.957 z"
   id="path570" />
			<path
   style="opacity:0.25"
   d="m 335.513,424.08 c -1.157,2.108 -2.217,3.587 -2.912,3.587 -2.404,0 -27.832,-14.546 -30.352,-21.533 0.926,-0.816 1.909,-1.356 2.938,-1.697 4.307,4.037 19.136,17.329 30.326,19.643 z"
   id="path572" />
			<path
   style="opacity:0.25"
   d="m 341.806,409.875 c 0,0 -1.067,2.796 -2.507,6.177 l -5.65,-10.484 c 3.658,2.199 7.669,4.307 8.157,4.307 z"
   id="path574" />
			<path
   style="opacity:0.25"
   d="m 393.286,417.042 c -5.599,-0.058 -12.444,-4.692 -12.714,-4.885 4.731,1.678 9.642,0.553 11.486,-0.141 0.186,-0.071 0.431,-0.553 0.726,-1.388 z"
   id="path576" />
		</g><g
   id="g596"
   transform="translate(-93.772275,-61.881188)">
			
				<linearGradient
   id="SVGID_00000057140600108224136700000010387381141393654928_"
   gradientUnits="userSpaceOnUse"
   x1="324.48169"
   y1="237.5578"
   x2="323.10709"
   y2="271.4657">
				<stop
   offset="0"
   style="stop-color:#FFB000"
   id="stop580" />
				<stop
   offset="1"
   style="stop-color:#FF6700"
   id="stop582" />
			</linearGradient>
			<path
   style="fill:url(#SVGID_00000057140600108224136700000010387381141393654928_)"
   d="m 313.073,262.944 c 0,0 1.146,-4.355 5.842,-5.845 4.697,-1.489 11.856,1.833 13.918,2.52 2.062,0.687 0.516,3.326 0.516,3.326 z"
   id="path585" />
			
				<linearGradient
   id="SVGID_00000052785725323213785950000006744314517506106500_"
   gradientUnits="userSpaceOnUse"
   x1="348.8287"
   y1="251.91701"
   x2="346.16611"
   y2="295.3588">
				<stop
   offset="0"
   style="stop-color:#4C1710"
   id="stop587" />
				<stop
   offset="1"
   style="stop-color:#723328"
   id="stop589" />
			</linearGradient>
			<polygon
   style="fill:url(#SVGID_00000052785725323213785950000006744314517506106500_)"
   points="325.731,258.207 373.576,258.207 371.743,262.944 323.02,262.945 "
   id="polygon592" />
			<polygon
   style="fill:#3a1508"
   points="402.757,259.975 403.742,262.944 371.743,262.944 373.576,258.207 "
   id="polygon594" />
		</g><g
   id="g614"
   transform="translate(-93.772275,-61.881188)">
			<path
   style="fill:#0d5375"
   d="m 456.438,427.667 h -24.747 c -1.806,0 -3.252,-1.549 -3.079,-3.394 0.154,-1.607 1.6,-2.79 3.214,-2.79 h 0.039 c 4.969,0 8.992,-4.024 8.992,-8.992 v -62.182 h 6.415 v 62.182 c 0,4.969 4.024,8.992 8.992,8.992 h 0.039 c 1.613,0 3.06,1.183 3.214,2.79 0.173,1.845 -1.273,3.394 -3.079,3.394 z"
   id="path598" />
			<path
   style="opacity:0.25"
   d="m 456.438,427.667 h -19.932 c -1.806,0 -3.252,-1.549 -3.079,-3.394 0.154,-1.607 1.6,-2.79 3.214,-2.79 h 0.039 c 4.969,0 8.992,-4.024 8.992,-8.992 v -62.182 h 1.6 v 62.182 c 0,4.969 4.024,8.992 8.992,8.992 h 0.039 c 1.613,0 3.06,1.183 3.214,2.79 0.173,1.845 -1.273,3.394 -3.079,3.394 z"
   id="path600" />
			<path
   style="fill:#8bdef2"
   d="m 529.334,221.042 -0.019,0.058 -43.168,129.209 H 409.58 c -2.34,0 -4.114,-2.095 -3.735,-4.403 l 1.266,-7.636 c 0.302,-1.826 1.877,-3.162 3.728,-3.162 h 54.629 c 2.494,0 4.724,-1.568 5.56,-3.914 l 41.317,-115.493 c 0.906,-2.52 3.593,-3.921 6.171,-3.214 l 7.302,1.986 c 2.841,0.778 4.448,3.773 3.516,6.569 z"
   id="path602" />
			<path
   style="opacity:0.25"
   d="M 529.315,221.1 486.147,350.309 H 413.72 l 0.72,-4.364 c 0.302,-1.826 1.883,-3.169 3.734,-3.169 h 54.629 c 2.494,0 4.718,-1.562 5.56,-3.915 L 519.68,223.368 c 0.9,-2.513 3.587,-3.914 6.171,-3.214 z"
   id="path604" />
			<g
   id="g608">
				<path
   style="fill:#00b3f9"
   d="m 447.271,344.062 c -0.191,0 -0.384,-0.034 -0.569,-0.104 -0.624,-0.237 -1.037,-0.835 -1.037,-1.503 v -43.162 c 0,-0.888 0.719,-1.607 1.607,-1.607 h 38.26 c 0.632,0 1.206,0.371 1.466,0.948 0.259,0.576 0.156,1.252 -0.263,1.725 l -38.26,43.162 c -0.312,0.351 -0.752,0.541 -1.204,0.541 z m 1.608,-43.162 v 37.32 l 33.082,-37.32 z"
   id="path606" />
			</g>
			<path
   style="fill:#0d5375"
   d="m 452.335,342.455 c 0,2.796 -2.267,5.063 -5.063,5.063 -2.796,0 -5.063,-2.267 -5.063,-5.063 0,-2.796 2.267,-5.063 5.063,-5.063 2.796,0 5.063,2.267 5.063,5.063 z"
   id="path610" />
			<path
   style="fill:#0d5375"
   d="m 494.391,302.501 h -65.697 c -1.771,0 -3.207,-1.436 -3.207,-3.207 v 0 c 0,-1.771 1.436,-3.208 3.207,-3.208 h 65.697 c 1.772,0 3.208,1.436 3.208,3.208 v 0 c 0,1.771 -1.436,3.207 -3.208,3.207 z"
   id="path612" />
		</g><g
   id="g644"
   transform="translate(-93.772275,-61.881188)">
			<g
   id="g622">
				<path
   style="fill:#11191e"
   d="m 277.619,280.125 h -54.713 c -0.829,0 -1.626,-0.116 -2.385,-0.341 -3.587,-1.029 -6.203,-4.332 -6.203,-8.247 0,-2.372 0.964,-4.519 2.513,-6.074 1.555,-1.556 3.702,-2.52 6.074,-2.52 h 54.713 c -2.372,0 -4.519,0.964 -6.074,2.52 -0.746,0.746 -1.356,1.633 -1.793,2.616 -0.469,1.054 -0.726,2.224 -0.726,3.458 0,4.745 3.85,8.588 8.594,8.588 z"
   id="path616" />
				<path
   style="fill:#1c262d"
   d="m 423.444,271.538 c 0,2.372 -0.958,4.519 -2.513,6.074 -1.556,1.549 -3.702,2.513 -6.074,2.513 H 277.619 c -4.744,0 -8.594,-3.844 -8.594,-8.587 0,-1.234 0.257,-2.404 0.726,-3.458 0.437,-0.983 1.048,-1.87 1.793,-2.616 1.556,-1.556 3.702,-2.52 6.074,-2.52 h 137.238 c 4.744,0 8.588,3.85 8.588,8.594 z"
   id="path618" />
				<path
   style="opacity:0.25"
   d="m 401.911,276.674 c 0,1.228 -0.302,2.391 -0.848,3.452 H 222.907 c -0.829,0 -1.626,-0.116 -2.385,-0.341 -0.45,-0.964 -0.694,-2.012 -0.694,-3.111 0,-2.372 1.131,-4.512 2.97,-6.074 1.832,-1.556 4.364,-2.52 7.16,-2.52 h 161.83 c 5.592,0 10.123,3.85 10.123,8.594 z"
   id="path620" />
			</g>
			<g
   id="g642">
				<g
   id="g628">
					<polygon
   style="fill:#008eba"
   points="202.267,427.667 196.232,427.667 234.676,280.125 240.711,280.125 "
   id="polygon624" />
					<polygon
   style="opacity:0.25"
   points="202.267,427.667 198.964,427.667 237.408,280.125 240.711,280.125 "
   id="polygon626" />
				</g>
				<g
   id="g634">
					<polygon
   style="fill:#00b3f9"
   points="257.655,427.667 251.613,427.667 290.057,280.125 296.099,280.125 "
   id="polygon630" />
					<polygon
   style="opacity:0.25"
   points="257.655,427.667 254.82,427.667 293.264,280.125 296.099,280.125 "
   id="polygon632" />
				</g>
				<g
   id="g640">
					<polygon
   style="fill:#00b3f9"
   points="434.815,427.667 396.371,280.125 402.413,280.125 440.857,427.667 "
   id="polygon636" />
					<polygon
   style="opacity:0.25"
   points="438.022,427.667 399.578,280.125 402.413,280.125 440.857,427.667 "
   id="polygon638" />
				</g>
			</g>
		</g><path
   style="fill:#cae7ef"
   d="m 373.89073,87.156812 h -86.144 c -2.973,0 -5.38401,-2.41 -5.38401,-5.384 v 0 c 0,-2.973 2.41001,-5.384 5.38401,-5.384 h 86.144 c 2.973,0 5.384,2.41 5.384,5.384 v 0 c 0,2.973 -2.411,5.384 -5.384,5.384 z"
   id="path646" /><path
   style="fill:#add0d8"
   d="m 302.09673,107.54681 v 0 c -1.535,0 -2.78,-1.244 -2.78,-2.78 V 87.155812 h 5.559 v 17.610998 c 0.001,1.536 -1.243,2.78 -2.779,2.78 z"
   id="path648" /><path
   style="fill:#add0d8"
   d="m 359.72073,107.54681 v 0 c -1.53501,0 -2.78,-1.244 -2.78,-2.78 V 87.155812 h 5.559 v 17.610998 c 10e-4,1.536 -1.243,2.78 -2.779,2.78 z"
   id="path650" /><path
   style="fill:#add0d8"
   d="m 310.49373,46.604812 h -2.548 c -0.886,0 -1.604,0.718 -1.604,1.604 v 26.576 c 0,0.886 0.718,1.604 1.604,1.604 h 2.548 c 0.886,0 1.604,-0.718 1.604,-1.604 v -26.576 c -0.001,-0.886 -0.719,-1.604 -1.604,-1.604 z"
   id="path652" /><path
   style="fill:#add0d8"
   d="m 350.21273,46.604812 h -2.54701 c -0.886,0 -1.60399,0.718 -1.60399,1.604 v 26.576 c 0,0.886 0.718,1.604 1.60399,1.604 h 2.54701 c 0.886,0 1.604,-0.718 1.604,-1.604 v -26.576 c 0,-0.886 -0.71801,-1.604 -1.604,-1.604 z"
   id="path654" /><path
   style="fill:#ffffff"
   d="m 320.37873,46.604812 h -6.121 c -1.193,0 -2.16,0.967 -2.16,2.16 v 25.463 c 0,1.193 0.96699,2.16 2.16,2.16 h 6.121 c 1.193,0 2.16,-0.967 2.16,-2.16 v -25.463 c 0,-1.193 -0.967,-2.16 -2.16,-2.16 z"
   id="path656" /><path
   style="fill:#65b8d1"
   d="m 344.17173,48.682812 -5.717,-2.188 c -1.114,-0.426 -2.363,0.131 -2.79,1.245 l -9.103,23.781 c -0.426,1.114 0.13099,2.363 1.245,2.79 l 5.717,2.188 c 1.11399,0.427 2.363,-0.131 2.79,-1.245 l 9.103,-23.781 c 0.427,-1.114 -0.131,-2.363 -1.245,-2.79 z"
   id="path658" /><g
   id="g676"
   transform="translate(-93.772275,-61.881188)">
			<path
   style="fill:#8bdef2"
   d="m 286.256,390.467 -21.225,8.625 -26.162,-64.383 c -2.382,-5.861 0.439,-12.543 6.3,-14.925 v 0 c 5.861,-2.382 12.543,0.439 14.925,6.3 z"
   id="path662" />
			
				<line
   style="opacity:0.25;fill:none;stroke:#000000;stroke-width:1.2855;stroke-linecap:round;stroke-miterlimit:10"
   x1="245.168"
   y1="319.784"
   x2="272.84399"
   y2="385.513"
   id="line664" />
			<path
   style="fill:#65b8d1"
   d="m 276.302,398.536 -17.44,-6.762 c -1.083,-0.42 -1.62,-1.638 -1.201,-2.721 l 13.697,-35.326 c 2.287,-5.899 8.923,-8.826 14.822,-6.539 v 0 c 5.899,2.287 8.826,8.923 6.539,14.822 l -13.697,35.326 c -0.419,1.083 -1.637,1.62 -2.72,1.2 z"
   id="path666" />
			
				<line
   style="opacity:0.25;fill:none;stroke:#000000;stroke-width:1.2855;stroke-linecap:round;stroke-miterlimit:10"
   x1="286.181"
   y1="347.189"
   x2="269.771"
   y2="387.728"
   id="line668" />
			<path
   style="fill:#65b8d1"
   d="m 295.301,390.894 -1.954,10.908 -3.612,20.138 c -0.514,3.297 -3.355,5.727 -6.691,5.727 h -26.546 c -3.336,0 -6.177,-2.43 -6.691,-5.727 l -5.566,-31.046 c -0.643,-4.114 2.539,-7.822 6.698,-7.822 h 37.666 c 4.157,-10e-4 7.339,3.708 6.696,7.822 z"
   id="path670" />
			<path
   style="opacity:0.25"
   d="m 293.347,401.802 -3.612,20.138 c -0.514,3.297 -3.355,5.727 -6.691,5.727 h -19.161 l -3.233,-18.043 c -0.643,-4.114 2.539,-7.823 6.698,-7.823 h 25.999 z"
   id="path672" />
			<path
   style="fill:#8bdef2"
   d="m 292.987,392.845 h -46.432 c -3.11,0 -5.63,-2.521 -5.63,-5.631 v -3.402 c 0,-3.11 2.521,-5.631 5.63,-5.631 h 46.432 c 3.11,0 5.631,2.521 5.631,5.631 v 3.402 c 0,3.11 -2.521,5.631 -5.631,5.631 z"
   id="path674" />
		</g><g
   id="g686"
   transform="translate(-93.772275,-61.881188)">
			<path
   style="fill:#8bdef2"
   d="m 563.182,373.963 h -22.934 l -0.096,-2.494 -1.723,-44.75 -0.36,-9.397 c -0.244,-6.318 4.686,-11.641 11.004,-11.885 0.148,-0.007 0.302,-0.007 0.45,-0.007 6.125,0 11.203,4.84 11.441,11.011 l 0.398,10.278 0.238,6.286 0.514,13.299 0.623,16.185 z"
   id="path678" />
			
				<line
   style="opacity:0.25;fill:none;stroke:#000000;stroke-width:1.2855;stroke-linecap:round;stroke-miterlimit:10"
   x1="549.07397"
   y1="305.43799"
   x2="552.71301"
   y2="373.96301"
   id="line680" />
			<path
   style="fill:#65b8d1"
   d="m 582.228,353.813 c 0,2.668 -0.926,5.348 -2.822,7.52 l -11.017,12.631 H 537.98 l 2.173,-2.494 11.615,-13.305 10.349,-11.859 0.026,-0.032 c 4.159,-4.769 11.396,-5.264 16.159,-1.099 2.595,2.261 3.926,5.443 3.926,8.638 z"
   id="path682" />
			
				<line
   style="opacity:0.25;fill:none;stroke:#000000;stroke-width:1.2855;stroke-linecap:round;stroke-miterlimit:10"
   x1="578.30402"
   y1="345.17099"
   x2="552.71301"
   y2="373.96301"
   id="line684" />
		</g><g
   id="g736"
   transform="translate(-93.772275,-61.881188)">
			<path
   style="fill:#8bdef2"
   d="m 295.329,262.944 h -54.018 c -2.175,0 -3.939,-1.764 -3.939,-3.939 v -63.129 c 0,-2.175 1.764,-3.939 3.939,-3.939 h 54.018 c 2.175,0 3.939,1.763 3.939,3.939 v 63.129 c 0,2.176 -1.764,3.939 -3.939,3.939 z"
   id="path688" />
			<path
   style="fill:#0d5375"
   d="m 249.074,260.373 c -0.754,0 -1.368,-0.613 -1.368,-1.368 v -63.129 c 0,-0.754 0.614,-1.368 1.368,-1.368 h 46.255 c 0.754,0 1.368,0.613 1.368,1.368 v 63.129 c 0,0.754 -0.614,1.368 -1.368,1.368 z"
   id="path690" />
			<polygon
   style="opacity:0.25;fill:#ffffff"
   points="241.718,262.944 260.942,191.938 268.282,191.938 249.058,262.944 "
   id="polygon692" />
			<polygon
   style="opacity:0.25;fill:#ffffff"
   points="253.713,262.944 272.938,191.938 287.808,191.938 268.583,262.944 "
   id="polygon694" />
			<path
   style="fill:#65b8d1"
   d="m 242.346,262.944 h -18.118 c -1.324,0 -2.396,-1.073 -2.396,-2.396 v -66.214 c 0,-1.323 1.073,-2.396 2.396,-2.396 h 18.118 c 1.324,0 2.396,1.073 2.396,2.396 v 66.214 c 0,1.323 -1.073,2.396 -2.396,2.396 z"
   id="path696" />
			<path
   style="opacity:0.25"
   d="m 240.204,247.313 h -3.971 c -0.675,0 -1.222,-0.547 -1.222,-1.222 v 0 c 0,-0.675 0.547,-1.222 1.222,-1.222 h 3.971 c 0.675,0 1.222,0.547 1.222,1.222 v 0 c 0,0.675 -0.547,1.222 -1.222,1.222 z"
   id="path698" />
			<path
   style="opacity:0.25"
   d="m 229.503,247.313 h -3.971 c -0.675,0 -1.222,-0.547 -1.222,-1.222 v 0 c 0,-0.675 0.547,-1.222 1.222,-1.222 h 3.971 c 0.675,0 1.222,0.547 1.222,1.222 v 0 c 0,0.675 -0.547,1.222 -1.222,1.222 z"
   id="path700" />
			<g
   id="g708">
				<path
   style="fill:#55c6ff"
   d="m 274.444,262.944 c -5.277,1.69 -5.894,10.355 -6.492,18.75 -0.624,8.703 -1.208,16.918 -6.46,19.18 -0.379,0.167 -0.829,0.289 -1.343,0.289 -0.797,0 -1.735,-0.309 -2.706,-1.273 -5.772,-5.695 -8.324,-30.718 -0.456,-49.615 2.867,-6.891 7.803,-14.61 16.198,-19.2 -0.257,0.649 -0.508,1.298 -0.752,1.948 -7.27,4.493 -11.647,11.473 -14.263,17.747 -7.546,18.133 -5.232,42.873 0.173,48.208 0.881,0.868 1.742,1.105 2.642,0.72 4.532,-1.961 5.117,-10.162 5.682,-18.094 0.546,-7.598 1.099,-15.401 5.078,-18.66 z"
   id="path702" />
				<path
   style="fill:#55c6ff"
   d="m 291.323,227.643 c -0.006,0.354 -0.315,0.63 -0.649,0.636 h -0.437 c -0.983,0 -1.935,0.032 -2.86,0.103 0.231,-0.45 0.463,-0.894 0.707,-1.331 0.701,-0.039 1.414,-0.058 2.147,-0.058 h 0.456 c 0.353,0.008 0.636,0.297 0.636,0.65 z"
   id="path704" />
				<path
   style="fill:#55c6ff"
   d="m 366.071,260.572 c 0,0.354 -0.289,0.643 -0.643,0.649 -0.488,0 -32.119,0.225 -58.048,0.63 -14.212,0.219 -26.714,0.495 -31.438,0.816 -0.534,0.039 -1.035,0.129 -1.498,0.276 h -2.7 c 1.093,-0.894 2.436,-1.446 4.114,-1.562 4.564,-0.309 16.352,-0.572 29.934,-0.791 26.218,-0.424 59.128,-0.656 59.63,-0.656 0.34,-0.024 0.642,0.285 0.649,0.638 z"
   id="path706" />
			</g>
			<g
   id="g712">
				<path
   style="fill:#003c54"
   d="m 274.238,228.479 c -0.219,0.521 -0.431,1.041 -0.643,1.562 -7.707,2.661 -18.319,9.031 -20.292,24.123 -1.53,11.634 -0.508,21.205 0.315,28.899 0.939,8.78 1.562,14.584 -2.494,17.226 -2.076,1.356 -5.586,3.207 -9.243,3.207 -1.337,0 -2.7,-0.251 -4.017,-0.861 -4.409,-2.044 -7.218,-7.61 -8.343,-16.551 -2.063,-16.352 -0.218,-31.47 4.589,-37.628 1.369,-1.755 2.944,-2.745 4.673,-2.957 0.354,-0.038 0.675,0.212 0.714,0.566 0.045,0.354 -0.206,0.669 -0.559,0.713 -1.375,0.167 -2.661,0.996 -3.812,2.468 -4.609,5.907 -6.351,20.646 -4.332,36.676 1.067,8.472 3.625,13.704 7.61,15.549 4.352,2.012 9.397,-0.553 12.02,-2.256 3.394,-2.218 2.809,-7.707 1.915,-16.018 -0.829,-7.758 -1.857,-17.413 -0.315,-29.201 2.16,-16.467 14.141,-22.978 22.214,-25.517 z"
   id="path710" />
			</g>
			<path
   style="fill:#0d5375"
   d="m 233.287,209.026 v 0 c -3.332,0 -6.032,-2.701 -6.032,-6.032 v 0 c 0,-3.331 2.701,-6.032 6.032,-6.032 v 0 c 3.331,0 6.032,2.701 6.032,6.032 v 0 c 0,3.331 -2.701,6.032 -6.032,6.032 z"
   id="path714" />
			<path
   style="fill:#0d5375"
   d="m 235.272,212.462 h -3.971 c -0.675,0 -1.222,-0.547 -1.222,-1.222 v 0 c 0,-0.675 0.547,-1.222 1.222,-1.222 h 3.971 c 0.675,0 1.222,0.547 1.222,1.222 v 0 c 0,0.675 -0.547,1.222 -1.222,1.222 z"
   id="path716" />
			<path
   style="fill:#0d5375"
   d="m 235.272,215.899 h -3.971 c -0.675,0 -1.222,-0.547 -1.222,-1.222 v 0 c 0,-0.675 0.547,-1.222 1.222,-1.222 h 3.971 c 0.675,0 1.222,0.547 1.222,1.222 v 0 c 0,0.675 -0.547,1.222 -1.222,1.222 z"
   id="path718" />
			<path
   style="opacity:0.25"
   d="m 240.943,219.974 h -15.312 c -0.675,0 -1.222,-0.547 -1.222,-1.222 v 0 c 0,-0.675 0.547,-1.222 1.222,-1.222 h 15.312 c 0.675,0 1.222,0.547 1.222,1.222 v 0 c 0,0.675 -0.547,1.222 -1.222,1.222 z"
   id="path720" />
			<path
   style="opacity:0.25"
   d="m 240.943,225.759 h -15.312 c -0.675,0 -1.222,-0.547 -1.222,-1.222 v 0 c 0,-0.675 0.547,-1.222 1.222,-1.222 h 15.312 c 0.675,0 1.222,0.547 1.222,1.222 v 0 c 0,0.675 -0.547,1.222 -1.222,1.222 z"
   id="path722" />
			<path
   style="opacity:0.25"
   d="m 240.943,231.544 h -15.312 c -0.675,0 -1.222,-0.547 -1.222,-1.222 v 0 c 0,-0.675 0.547,-1.222 1.222,-1.222 h 15.312 c 0.675,0 1.222,0.547 1.222,1.222 v 0 c 0,0.675 -0.547,1.222 -1.222,1.222 z"
   id="path724" />
			<path
   style="opacity:0.25"
   d="m 240.943,237.329 h -15.312 c -0.675,0 -1.222,-0.547 -1.222,-1.222 v 0 c 0,-0.675 0.547,-1.222 1.222,-1.222 h 15.312 c 0.675,0 1.222,0.547 1.222,1.222 v 0 c 0,0.675 -0.547,1.222 -1.222,1.222 z"
   id="path726" />
			<path
   style="fill:#0d5375"
   d="m 227.359,241.234 c 0,0.664 -0.538,1.203 -1.203,1.203 -0.664,0 -1.203,-0.539 -1.203,-1.203 0,-0.664 0.538,-1.203 1.203,-1.203 0.664,0 1.203,0.539 1.203,1.203 z"
   id="path728" />
			<path
   style="fill:#0d5375"
   d="m 231.769,241.234 c 0,0.664 -0.539,1.203 -1.203,1.203 -0.664,0 -1.203,-0.539 -1.203,-1.203 0,-0.664 0.539,-1.203 1.203,-1.203 0.664,0 1.203,0.539 1.203,1.203 z"
   id="path730" />
			<path
   style="fill:#0d5375"
   d="m 236.179,241.234 c 0,0.664 -0.538,1.203 -1.203,1.203 -0.664,0 -1.203,-0.539 -1.203,-1.203 0,-0.664 0.539,-1.203 1.203,-1.203 0.665,0 1.203,0.539 1.203,1.203 z"
   id="path732" />
			<path
   style="fill:#0d5375"
   d="m 240.589,241.234 c 0,0.664 -0.538,1.203 -1.203,1.203 -0.664,0 -1.203,-0.539 -1.203,-1.203 0,-0.664 0.538,-1.203 1.203,-1.203 0.665,0 1.203,0.539 1.203,1.203 z"
   id="path734" />
		</g><g
   id="g768"
   transform="translate(-93.772275,-61.881188)">
			<path
   style="fill:#16374c"
   d="m 347.037,234.99 h -62.316 c -1.329,0 -2.406,-1.077 -2.406,-2.406 V 164.77 c 0,-1.329 1.077,-2.406 2.406,-2.406 h 62.316 c 1.329,0 2.406,1.077 2.406,2.406 v 67.815 c -10e-4,1.328 -1.078,2.405 -2.406,2.405 z"
   id="path738" />
			<path
   style="fill:#0c1c28"
   d="m 346.235,164.768 v 67.819 c 0,1.324 -1.08,2.404 -2.404,2.404 h -62.316 c -1.331,0 -2.404,-1.08 -2.404,-2.404 v -67.819 c 0,-1.324 1.073,-2.404 2.404,-2.404 h 62.316 c 1.324,0 2.404,1.079 2.404,2.404 z"
   id="path740" />
			<path
   style="opacity:0.25"
   d="m 334.755,177.25 v 57.74 h -53.241 c -1.331,0 -2.404,-1.08 -2.404,-2.404 v -57.734 h 53.241 c 1.324,0.001 2.404,1.074 2.404,2.398 z"
   id="path742" />
			<path
   style="opacity:0.25"
   d="m 303.966,206.516 c 0,6.376 -1.967,11.795 -4.699,13.768 -0.72,0.521 -1.485,0.803 -2.288,0.803 -0.759,0 -1.491,-0.257 -2.179,-0.726 -2.796,-1.909 -4.808,-7.385 -4.808,-13.845 0,-8.054 3.124,-14.578 6.987,-14.578 3.857,0 6.987,6.524 6.987,14.578 z"
   id="path744" />
			<path
   style="fill:#00b3f9"
   d="m 301.805,207.251 c 0,3.75 -1.157,6.937 -2.763,8.098 -0.423,0.306 -0.873,0.473 -1.346,0.473 -0.446,0 -0.877,-0.151 -1.281,-0.427 -1.645,-1.123 -2.828,-4.344 -2.828,-8.143 0,-4.737 1.837,-8.574 4.109,-8.574 2.268,-0.001 4.109,3.836 4.109,8.573 z"
   id="path746" />
			<path
   style="fill:#008eba"
   d="m 300.63,207.251 c 0,3.75 -1.157,6.937 -2.763,8.098 -0.423,0.306 -0.873,0.473 -1.346,0.473 -0.446,0 -0.877,-0.151 -1.282,-0.427 -1.645,-1.123 -2.828,-4.344 -2.828,-8.143 0,-4.737 1.837,-8.574 4.109,-8.574 2.269,-0.001 4.11,3.836 4.11,8.573 z"
   id="path748" />
			<path
   style="fill:#00b3f9"
   d="m 307.9,262.944 h -43.837 c 0,0 0.791,-4.352 2.404,-10.715 0.347,-1.376 0.739,-2.841 1.163,-4.377 1.26,-4.532 2.854,-9.674 4.802,-14.829 0.244,-0.649 0.495,-1.298 0.752,-1.948 v -0.006 c 0.135,-0.341 0.27,-0.688 0.411,-1.029 0.212,-0.521 0.424,-1.041 0.643,-1.562 3.683,-8.716 8.388,-16.937 14.173,-21.661 0.829,-0.681 1.678,-1.286 2.552,-1.813 1.504,-0.906 3.079,-1.568 4.718,-1.947 3.87,-0.9 2.899,7.951 1.755,9.712 -0.566,0.868 -5.252,6.762 -9.352,14.282 -0.244,0.437 -0.476,0.881 -0.707,1.331 -3.857,7.379 -6.923,16.076 -5.059,23.101 0.058,0.225 0.302,0.463 0.694,0.714 3.317,2.128 17.393,5.11 22.78,8.395 0.688,0.418 1.228,0.836 1.588,1.26 0.314,0.366 0.494,0.726 0.52,1.092 z"
   id="path750" />
			<path
   style="opacity:0.25"
   d="m 297.436,212.77 c -1.144,1.755 -19.039,23.924 -15.118,38.714 0.058,0.225 0.302,0.463 0.694,0.714 -2.635,-0.932 -5.116,-2.603 -4.744,-5.598 0.302,-19.701 16.191,-34.671 14.97,-38.438 -0.54,-1.658 -1.44,-2.61 -2.275,-3.156 1.504,-0.906 3.079,-1.568 4.718,-1.947 3.87,-0.901 2.899,7.949 1.755,9.711 z"
   id="path752" />
			<path
   style="opacity:0.25"
   d="m 294.305,262.944 h -30.242 c 0,0 0.791,-4.352 2.404,-10.715 1.858,5.419 6.794,7.765 14.089,8.35 8.71,0.688 13.749,2.365 13.749,2.365 z"
   id="path754" />
			<path
   style="opacity:0.25;fill:#ffffff"
   d="m 284.073,217.603 c -9.166,9.442 -11.152,28.076 -13.138,29.876 -1.35,1.221 -2.629,0.784 -3.304,0.373 3.773,-13.614 10.606,-32.736 20.781,-41.035 0.938,2.443 0.147,6.165 -4.339,10.786 z"
   id="path756" />
			<path
   style="fill:#00b3f9"
   d="m 291.109,229.149 h -0.518 c -0.741,0 -1.342,-0.601 -1.342,-1.342 v -0.518 c 0,-0.741 0.601,-1.342 1.342,-1.342 h 0.518 c 0.741,0 1.342,0.601 1.342,1.342 v 0.518 c 0,0.741 -0.601,1.342 -1.342,1.342 z"
   id="path758" />
			<path
   style="fill:#00b3f9"
   d="m 307.515,229.149 h -0.696 c -0.692,0 -1.253,-0.561 -1.253,-1.253 V 227.2 c 0,-0.692 0.561,-1.253 1.253,-1.253 h 0.696 c 0.692,0 1.253,0.561 1.253,1.253 v 0.696 c 0,0.692 -0.561,1.253 -1.253,1.253 z"
   id="path760" />
			<path
   style="fill:#00b3f9"
   d="m 312.441,229.149 h -0.696 c -0.692,0 -1.253,-0.561 -1.253,-1.253 V 227.2 c 0,-0.692 0.561,-1.253 1.253,-1.253 h 0.696 c 0.692,0 1.253,0.561 1.253,1.253 v 0.696 c 0,0.692 -0.561,1.253 -1.253,1.253 z"
   id="path762" />
			<path
   style="fill:#00b3f9"
   d="m 317.367,229.149 h -0.697 c -0.692,0 -1.253,-0.561 -1.253,-1.253 V 227.2 c 0,-0.692 0.561,-1.253 1.253,-1.253 h 0.697 c 0.692,0 1.253,0.561 1.253,1.253 v 0.696 c 0,0.692 -0.561,1.253 -1.253,1.253 z"
   id="path764" />
			<rect
   x="290.67801"
   y="181.036"
   style="fill:#00b3f9"
   width="14.663"
   height="4.8109999"
   id="rect766" />
		</g>

</svg>
